<svg id="Calque_1" data-name="Calque 1" xmlns="http://www.w3.org/2000/svg" viewBox="0 0 401.08 397.42"><defs><style>.cls-1{fill:#010101;}</style></defs><title>ballon couronne</title><path d="M277.45,326.49a120.39,120.39,0,0,0-65.73,31.23c33.57,1.6,58.17,15.33,84.15,18.5-6.23-22-12.09-36.71-18.42-49.73m28.72,99.56c-49.74,4.77-94.64,20.58-130.88,43.11a120.75,120.75,0,0,0,33.2,62.49c38.32-29.93,52.08-80.66,99.29-92.46-.46-4.41-1-8.78-1.61-13.14M301,396.57c-38.87-2.12-73.06-24.68-105.22-20.83a120.11,120.11,0,0,0-22.77,70.41l.07,1.59c33.72-22.76,86.05-37.87,129.66-42.16-.56-3-1.09-6-1.74-9m113.22,37.32a322.55,322.55,0,0,0-87.83-9.16c.55,4.15,1,8.32,1.38,12.5,34.38,2.3,60.48,36.45,71.38,68.32a120.19,120.19,0,0,0,15.69-59.4c0-4.14-.22-8.23-.62-12.26m-35.66-74C357.29,368,349,389.27,321.49,395.25l1.61,9c25.27-1,52,.66,86.73,7.52A120.74,120.74,0,0,0,378.6,359.9m-69.46,99.39c-33.87,10.19-51,58.65-85.09,85.38A120.23,120.23,0,0,0,294,567.07l5.59-.28c7.61-34.7,11.4-68.72,9.59-107.5M329.29,458c1.7,36.31-1.61,71.22-8.62,106a120.81,120.81,0,0,0,66.44-40.81c-10.13-28-28.59-60-57.82-65.15m31.85-112.39c-22.6,16-24.81,25.55-44.5,29.87a330.69,330.69,0,0,0-17.54-50,120.24,120.24,0,0,1,62,20.16" transform="translate(-83.52 -169.65)"/><path class="cls-1" d="M386.28,422.15" transform="translate(-83.52 -169.65)"/><path d="M160.28,426.25,83.52,333.69l60.2,12.8L116.63,226.84l91.81,64,47.4-121.15,40.64,115.13,60.2-57.19,7.53,73,110.61-48.16L424.41,354l60.2,18.06L422.15,409.7s-19.48-96.56-137-94.07C179.09,317.89,160.28,426.25,160.28,426.25Z" transform="translate(-83.52 -169.65)"/></svg>